HIERARCHY
ROOT Hips
{
	OFFSET 0.000000 88.474243 0.000000
	CHANNELS 6 Xposition Yposition Zposition Zrotation Yrotation Xrotation 
	JOINT Hips_Spine
	{
		OFFSET 0.000000 0.000000 0.000000
		CHANNELS 3 Zrotation Yrotation Xrotation
		JOINT Spine
		{
			OFFSET 0.005100 8.711998 -0.691000
			CHANNELS 3 Zrotation Yrotation Xrotation
			JOINT Spine1
			{
				OFFSET -0.009200 8.660301 -1.275000
				CHANNELS 3 Zrotation Yrotation Xrotation
				JOINT Spine2
				{
					OFFSET 0.006300 9.852501 -1.857000
					CHANNELS 3 Zrotation Yrotation Xrotation
					JOINT Spine2_Neck
					{
						OFFSET 0.000000 0.000000 0.000000
						CHANNELS 3 Zrotation Yrotation Xrotation
						JOINT Neck
						{
							OFFSET 0.016300 11.420799 -0.263300
							CHANNELS 3 Zrotation Yrotation Xrotation
							End Site #name: Head
							{
								OFFSET -0.019200 9.262405 2.362500
							}
						}
					}
					JOINT Spine2_LeftShoulder
					{
						OFFSET 0.000000 0.000000 0.000000
						CHANNELS 3 Zrotation Yrotation Xrotation
						JOINT LeftShoulder
						{
							OFFSET 5.616900 6.732201 -0.345700
							CHANNELS 3 Zrotation Yrotation Xrotation
							JOINT LeftArm
							{
								OFFSET 10.664888 -0.183372 -2.440700
								CHANNELS 3 Zrotation Yrotation Xrotation
								JOINT LeftForeArm
								{
									OFFSET 27.459126 0.000000 0.000000
									CHANNELS 3 Zrotation Yrotation Xrotation
									End Site #name: LeftHand
									{
										OFFSET 21.306858 0.000000 0.000000
									}
								}
							}
						}
					}
					JOINT Spine2_RightShoulder
					{
						OFFSET 0.000000 0.000000 0.000000
						CHANNELS 3 Zrotation Yrotation Xrotation
						JOINT RightShoulder
						{
							OFFSET -5.580300 6.737503 -0.344400
							CHANNELS 3 Zrotation Yrotation Xrotation
							JOINT RightArm
							{
								OFFSET -10.679335 -0.188484 -2.383900
								CHANNELS 3 Zrotation Yrotation Xrotation
								JOINT RightForeArm
								{
									OFFSET -27.503529 0.000000 0.000000
									CHANNELS 3 Zrotation Yrotation Xrotation
									End Site #name: RightHand
									{
										OFFSET -21.306808 0.000000 0.000000
									}
								}
							}
						}
					}
				}
			}
		}
	}
	JOINT Hips_LeftUpLeg
	{
		OFFSET 0.000000 0.000000 0.000000
		CHANNELS 3 Zrotation Yrotation Xrotation
		JOINT LeftUpLeg
		{
			OFFSET 6.857700 -6.739601 0.312100
			CHANNELS 3 Zrotation Yrotation Xrotation
			JOINT LeftLeg
			{
				OFFSET -0.367590 -34.731552 -4.572400
				CHANNELS 3 Zrotation Yrotation Xrotation
				End Site #name: LeftFoot
				{
					OFFSET 0.367590 -34.656704 -6.067400
				}
			}
		}
	}
	JOINT Hips_RightUpLeg
	{
		OFFSET 0.000000 0.000000 0.000000
		CHANNELS 3 Zrotation Yrotation Xrotation
		JOINT RightUpLeg
		{
			OFFSET -6.876100 -6.733299 0.301000
			CHANNELS 3 Zrotation Yrotation Xrotation
			JOINT RightLeg
			{
				OFFSET 0.347353 -34.795158 -4.515900
				CHANNELS 3 Zrotation Yrotation Xrotation
				End Site #name: RightFoot
				{
					OFFSET -0.347353 -34.589367 -6.070300
				}
			}
		}
	}
}
MOTION
Frames: 18
Frame Time: 0.041667
-0.302828 0.561191 -1.946680 -2.800062 15.867224 -7.783266 -0.000000 0.000000 0.000000 4.692393 -0.539761 -7.065965 2.475576 -0.610092 -2.191916 0.000000 0.000000 0.000000 2.714421 -0.553286 -1.924574 2.498112 -3.887108 -1.255227 2.208015 -0.753708 -1.837509 -24.115354 0.041087 5.210880 -47.127172 21.653412 15.698130 -0.695344 -22.441475 3.840583 2.118292 -0.496599 -0.685876 12.227245 8.075470 2.195693 60.048576 2.979488 -5.180020 0.843456 41.976315 -0.162039 0.000000 0.000000 -0.000000 -1.202102 20.186446 -8.065223 4.988754 10.406662 23.115415 0.000000 0.000000 0.000000 -0.399639 2.647114 -12.148852 3.013072 -7.437902 5.216034 
-0.584728 0.559530 -2.026570 -3.036391 15.729443 -7.963189 -0.000000 0.000000 0.000000 4.976478 -0.340723 -7.034508 2.699177 -0.651695 -2.200343 0.000000 0.000000 0.000000 2.894215 -0.529399 -1.883216 2.527748 -3.866805 -1.159935 2.438401 -0.765849 -1.777121 -23.472569 0.135380 5.284904 -47.974339 22.130664 15.452555 -0.740462 -23.406194 3.739753 2.308620 -0.493706 -0.704339 12.156002 8.269360 2.279753 60.012379 2.589114 -5.539245 0.849203 41.861440 -0.166049 0.000000 -0.000000 -0.000000 -0.431461 20.587720 -8.009282 5.139370 10.663592 23.479824 0.000000 0.000000 0.000000 0.310808 2.839746 -12.319127 3.226461 -7.544440 5.401297 
-0.841401 0.557780 -2.095861 -3.208034 15.420500 -8.103527 -0.000000 0.000000 0.000000 5.269451 -0.189005 -6.829869 2.919143 -0.699291 -2.209603 0.000000 0.000000 0.000000 3.064820 -0.507617 -1.843648 2.603101 -3.853737 -1.084310 2.660689 -0.781078 -1.729895 -22.916137 0.190316 5.368924 -48.710593 22.563951 15.132763 -0.776476 -24.217137 3.673668 2.490837 -0.490865 -0.723843 12.082553 8.457243 2.356862 60.015287 2.221038 -5.898564 0.853715 41.742297 -0.164177 0.000000 -0.000000 -0.000000 0.240489 20.908308 -7.973170 5.230905 10.892126 23.888103 0.000000 0.000000 0.000000 0.924808 3.090276 -12.553164 3.507237 -7.566992 5.652226 
-1.062793 0.556506 -2.157603 -3.272589 14.876955 -8.170719 0.000000 0.000000 0.000000 5.489403 -0.127873 -6.619383 3.143055 -0.748262 -2.224956 0.000000 0.000000 0.000000 3.232619 -0.490490 -1.816716 2.707380 -3.845583 -1.000811 2.871707 -0.801947 -1.696500 -22.449633 0.226797 5.433921 -49.291074 22.917471 14.629641 -0.808944 -24.912915 3.636330 2.671035 -0.498135 -0.748104 12.002660 8.630645 2.424800 60.019279 1.902357 -6.258230 0.861051 41.651659 -0.158312 0.000000 -0.000000 -0.000000 0.708735 21.055998 -7.972370 5.249939 11.025138 24.297109 0.000000 -0.000000 0.000000 1.429944 3.478918 -12.864243 3.802814 -7.614230 5.986154 
-1.239712 0.554811 -2.213975 -3.237390 14.069730 -8.178054 0.000000 -0.000000 0.000000 5.612031 -0.163921 -6.446542 3.362649 -0.793461 -2.237928 0.000000 0.000000 0.000000 3.398462 -0.478421 -1.796907 2.828958 -3.852904 -0.876969 3.073229 -0.820563 -1.664637 -22.062242 0.240047 5.451409 -49.789990 23.266342 14.123383 -0.840353 -25.554607 3.608095 2.851147 -0.512581 -0.776871 11.930544 8.789924 2.485266 60.025538 1.616171 -6.593921 0.871187 41.631359 -0.149895 0.000000 -0.000000 -0.000000 1.024069 20.981021 -8.065803 5.203066 11.037506 24.827218 0.000000 -0.000000 0.000000 1.856441 4.094309 -13.178326 4.114996 -7.693409 6.320315 
-1.366848 0.548097 -2.269085 -3.129947 13.056613 -8.144011 0.000000 -0.000000 0.000000 5.652673 -0.271834 -6.312881 3.578846 -0.841172 -2.238509 0.000000 0.000000 0.000000 3.556373 -0.468723 -1.768590 2.930626 -3.858763 -0.751458 3.266186 -0.837361 -1.624782 -21.777775 0.224095 5.434604 -50.217360 23.589066 13.638330 -0.866685 -26.108912 3.593672 3.024182 -0.526849 -0.800459 11.871186 8.946648 2.543891 60.022598 1.368995 -6.882435 0.885412 41.729230 -0.138745 0.000000 -0.000000 -0.000000 1.243442 20.834682 -8.142657 5.096696 10.973584 25.402280 0.000000 -0.000000 0.000000 2.179105 4.757252 -13.470231 4.436336 -7.791346 6.579361 
-1.438360 0.538024 -2.322647 -2.941346 11.758102 -8.067625 0.000000 -0.000000 0.000000 5.635562 -0.418240 -6.188728 3.783224 -0.885669 -2.224807 0.000000 0.000000 0.000000 3.701643 -0.460239 -1.726169 3.006748 -3.858368 -0.634367 3.446960 -0.853055 -1.576089 -21.582551 0.195136 5.396285 -50.576125 23.854105 13.210312 -0.892328 -26.584980 3.595399 3.186916 -0.543712 -0.815634 11.827590 9.104915 2.600476 60.008949 1.159985 -7.110298 0.902348 41.992785 -0.128023 0.000000 -0.000000 -0.000000 1.429838 20.676083 -8.040744 4.914149 10.882663 25.783028 0.000000 -0.000000 0.000000 2.415309 5.573610 -13.796935 4.741369 -7.862434 6.930607 
-1.449886 0.524728 -2.376164 -2.679545 10.160879 -7.944280 0.000000 -0.000000 0.000000 5.588639 -0.564307 -6.050132 3.964235 -0.936895 -2.199526 0.000000 0.000000 0.000000 3.833231 -0.457793 -1.670134 3.069358 -3.815254 -0.519288 3.609205 -0.870158 -1.518353 -21.526277 0.232353 5.333818 -50.848685 24.081390 12.938692 -0.912377 -26.903035 3.596497 3.337461 -0.569061 -0.823620 11.802749 9.278799 2.657269 60.002718 0.990451 -7.231193 0.918705 42.386040 -0.115672 0.000000 -0.000000 -0.000000 1.570151 20.482658 -7.678815 4.650477 10.742118 25.993142 0.000000 -0.000000 0.000000 2.546150 6.509154 -14.166420 5.038144 -7.875831 7.304142 
-1.397776 0.508381 -2.430387 -2.351449 8.286361 -7.772147 0.000000 -0.000000 0.000000 5.497332 -0.722415 -5.901208 4.131096 -0.992344 -2.156150 0.000000 0.000000 0.000000 3.948747 -0.461453 -1.611423 3.109606 -3.734635 -0.415722 3.761282 -0.892415 -1.450773 -21.565374 0.312079 5.211561 -51.031818 24.256660 12.808038 -0.928471 -27.058423 3.603191 3.474083 -0.599720 -0.823601 11.787876 9.451594 2.707257 59.986286 0.924925 -7.260165 0.935993 42.881304 -0.101730 0.000000 -0.000000 -0.000000 1.664193 20.278103 -7.215258 4.296923 10.545897 26.081102 0.000000 -0.000000 0.000000 2.562280 7.489948 -14.623115 5.310078 -7.861195 7.793699 
-1.283430 0.489161 -2.486056 -1.972729 6.211244 -7.569026 0.000000 -0.000000 0.000000 5.360280 -0.802247 -5.763337 4.266140 -1.042006 -2.106450 0.000000 0.000000 0.000000 4.056353 -0.473951 -1.558949 3.112930 -3.645412 -0.322794 3.905883 -0.917464 -1.386207 -21.683397 0.356900 5.082424 -51.167273 24.365254 12.811357 -0.942897 -27.085070 3.608676 3.601125 -0.630216 -0.822842 11.794401 9.624614 2.748069 59.985208 0.865941 -7.269946 0.954905 43.412317 -0.088079 0.000000 -0.000000 -0.000000 1.655824 20.043348 -6.841758 3.877350 10.210007 26.262965 0.000000 -0.000000 0.000000 2.455806 8.407459 -15.191073 5.547156 -7.810066 8.425328 
-1.110110 0.470913 -2.539192 -1.565026 3.996432 -7.323520 0.000000 -0.000000 0.000000 5.212124 -0.846540 -5.637629 4.394712 -1.086916 -2.075101 0.000000 0.000000 0.000000 4.156465 -0.484798 -1.512221 3.083763 -3.542403 -0.242294 4.041282 -0.935791 -1.338619 -21.860904 0.400640 4.978534 -51.263541 24.462573 12.860858 -0.954790 -27.002658 3.603486 3.719909 -0.654810 -0.828719 11.795622 9.798226 2.769616 59.991661 0.848955 -7.232938 0.973064 43.923827 -0.076768 0.000000 -0.000000 -0.000000 1.541569 19.706927 -6.603935 3.490452 9.926423 26.536634 0.000000 -0.000000 0.000000 2.227329 9.217714 -15.884559 5.737547 -7.725775 9.191893 
-0.882335 0.453610 -2.588417 -1.148948 1.797955 -7.064753 0.000000 -0.000000 0.000000 5.081485 -0.880679 -5.531211 4.513615 -1.125780 -2.062595 0.000000 0.000000 0.000000 4.252177 -0.489534 -1.475311 3.031695 -3.426124 -0.169601 4.169922 -0.945641 -1.314903 -22.095005 0.456292 4.880870 -51.300459 24.610288 12.934610 -0.968050 -26.889930 3.575663 3.831312 -0.676710 -0.839731 11.769372 9.959876 2.775579 60.017976 0.847845 -7.179927 0.988098 44.372665 -0.068070 0.000000 -0.000000 -0.000000 1.287271 19.315469 -6.447744 3.163485 9.695801 26.699269 0.000000 -0.000000 0.000000 1.889505 9.866641 -16.649137 5.888116 -7.600546 10.103646 
-0.603447 0.438035 -2.633795 -0.750975 -0.187032 -6.834904 0.000000 -0.000000 0.000000 4.995788 -0.890929 -5.433799 4.629639 -1.157160 -2.075531 0.000000 0.000000 0.000000 4.347128 -0.489387 -1.450329 2.959426 -3.299533 -0.099663 4.296084 -0.946941 -1.316469 -22.384050 0.523298 4.783809 -51.306671 24.913115 12.926662 -0.978115 -26.738347 3.523753 3.940103 -0.694238 -0.861896 11.697845 10.097266 2.774962 60.063828 0.838666 -7.148192 0.999565 44.732784 -0.063543 0.000000 -0.000000 -0.000000 0.924026 18.900691 -6.296148 2.822107 9.481070 26.704523 0.000000 -0.000000 0.000000 1.464197 10.352533 -17.438688 6.021943 -7.389877 11.173207 
-0.282193 0.428077 -2.672249 -0.396496 -1.829482 -6.652021 0.000000 -0.000000 0.000000 4.927967 -0.871700 -5.371363 4.747626 -1.177762 -2.110885 0.000000 0.000000 0.000000 4.445503 -0.484772 -1.436091 2.866493 -3.170201 -0.032490 4.423957 -0.940454 -1.338989 -22.731137 0.597126 4.677784 -51.291437 25.331540 12.830763 -0.990315 -26.602366 3.451369 4.050271 -0.706434 -0.893869 11.589203 10.207388 2.767831 60.131548 0.804231 -7.167901 1.008418 44.984913 -0.057973 0.000000 -0.000000 -0.000000 0.456634 18.470763 -6.186271 2.396042 9.172966 26.663910 0.000000 -0.000000 0.000000 0.996341 10.664576 -18.206337 6.139038 -7.071243 12.358410 
0.074541 0.425720 -2.703920 -0.106442 -3.107397 -6.518522 0.000000 -0.000000 0.000000 4.859175 -0.830859 -5.328718 4.867681 -1.189087 -2.157632 0.000000 0.000000 0.000000 4.545279 -0.476023 -1.436153 2.768547 -3.052579 0.010992 4.551339 -0.926751 -1.380587 -23.110675 0.656664 4.549913 -51.238585 25.814668 12.696266 -1.005418 -26.492058 3.360729 4.163967 -0.712631 -0.936145 11.446953 10.290345 2.758781 60.228263 0.693568 -7.275568 1.015235 45.130952 -0.049511 0.000000 -0.000000 -0.000000 -0.048868 18.039611 -6.138310 1.916634 8.656958 26.631471 0.000000 -0.000000 0.000000 0.498766 10.777029 -18.881560 6.179149 -6.683283 13.551915 
0.460324 0.431134 -2.730444 0.102845 -3.968947 -6.426084 0.000000 -0.000000 0.000000 4.786011 -0.790713 -5.325573 4.987655 -1.190074 -2.216837 0.000000 0.000000 0.000000 4.643015 -0.460159 -1.442723 2.684916 -2.933228 0.027644 4.678663 -0.909868 -1.415095 -23.490378 0.696447 4.423736 -51.156785 26.365229 12.502445 -1.016856 -26.356975 3.270874 4.274667 -0.709799 -0.984309 11.267427 10.344865 2.752822 60.360292 0.507514 -7.466216 1.020088 45.247788 -0.039193 0.000000 -0.000000 -0.000000 -0.573592 17.590569 -6.161050 1.362465 7.912315 26.588295 0.000000 -0.000000 0.000000 0.003463 10.620571 -19.431391 6.304035 -6.139170 14.663062 
0.869602 0.443975 -2.752573 0.221745 -4.422542 -6.371313 0.000000 -0.000000 0.000000 4.713555 -0.783399 -5.357606 5.096596 -1.182976 -2.279138 0.000000 0.000000 0.000000 4.731028 -0.443426 -1.456907 2.620008 -2.856425 0.065270 4.793356 -0.893485 -1.455927 -23.840384 0.698245 4.312570 -51.025853 26.919282 12.306565 -1.027999 -26.238503 3.165522 4.376337 -0.703285 -1.033280 11.067211 10.363651 2.748423 60.519455 0.291043 -7.713990 1.026552 45.329581 -0.024496 0.000000 -0.000000 -0.000000 -1.075509 17.215257 -6.264521 0.815089 7.058809 26.651388 0.000000 -0.000000 0.000000 -0.432662 10.222262 -19.803088 6.403680 -5.635041 15.619811 
1.295528 0.463431 -2.770221 0.281286 -4.548938 -6.345720 0.000000 -0.000000 0.000000 4.631928 -0.777990 -5.416312 5.184335 -1.168523 -2.334528 0.000000 0.000000 0.000000 4.802104 -0.422775 -1.476578 2.555265 -2.832121 0.134809 4.883407 -0.875957 -1.488870 -24.110569 0.674497 4.204911 -50.865354 27.345713 12.136222 -1.030024 -26.088964 3.047169 4.458451 -0.689104 -1.074490 10.870381 10.400913 2.752017 60.697612 0.106175 -7.969512 1.032907 45.409493 -0.007588 0.000000 -0.000000 -0.000000 -1.558202 16.891442 -6.472293 0.290535 6.120871 26.838731 0.000000 -0.000000 0.000000 -0.823817 9.590287 -19.974204 6.447750 -5.292506 16.403657 
